# xmcd
#
# Track frame offsets:
# 150
# 14774
# 29178
# 38796
# 60547
# 84428
# 93517
# 106348
# 124326
# 141372
# 169052
# 179450
# 199350
# 217818
# 227680
# 243505
# 258817
#
# Disc length: 3530 seconds
#
#
# Revision: 0
# Processed by: cddbd v1.5.2PL0 Copyright (c) Steve Scherf et al.
# Submitted via: FreeRIP 2.53 
#
DISCID=f40dc811
DTITLE=Martijn Schok Boogie and Blues Band - Let The Four Winds Blow
DYEAR=2008
DGENRE=Boogie Woogie
TTITLE0=Roll'Em Pete
TTITLE1=Let The Four Winds Blow
TTITLE2=I'm Walking
TTITLE3=Go To The Mardi Gras
TTITLE4=Cry Me A River
TTITLE5=Has Anyone Seen Corrine
TTITLE6=Swanee River Boogie
TTITLE7=Kansas City
TTITLE8=Jambalaya
TTITLE9=Women Be Wise
TTITLE10=Texas Stomp
TTITLE11=I Gotta Right To Sing The Blues
TTITLE12=Flip Flop and Fly
TTITLE13=Yancey Special
TTITLE14=For Mr. Walker
TTITLE15=Doin' It
TTITLE16=The Boogie Runner
EXTD=Schok Records MA7401
EXTT0=
EXTT1=
EXTT2=
EXTT3=
EXTT4=
EXTT5=
EXTT6=
EXTT7=
EXTT8=
EXTT9=
EXTT10=
EXTT11=
EXTT12=
EXTT13=
EXTT14=
EXTT15=
EXTT16=
PLAYORDER=
